<svg width="26" height="24" viewBox="0 0 26 24" fill="none" xmlns="http://www.w3.org/2000/svg">
<g clip-path="url(#clip0_5619_161)">
<path d="M8.11513 32.4957V12.3244C5.85054 11.7194 4.0023 10.5094 2.57042 8.69442C1.13853 6.87942 0.285628 4.81692 0.0116933 2.50692C-0.0428753 2.12192 0.0935462 1.79907 0.420958 1.53837C0.74837 1.27767 1.13035 1.14677 1.5669 1.14567C2.00345 1.14457 2.38543 1.26172 2.71284 1.49712C3.04025 1.73252 3.23124 2.05537 3.28581 2.46567C3.58594 4.44567 4.43175 6.09567 5.82325 7.41567C7.21475 8.73567 8.93366 9.39567 10.98 9.39567H15.0726C15.8912 9.39567 16.6551 9.54692 17.3645 9.84942C18.0739 10.1519 18.7151 10.5919 19.2881 11.1694L25.5498 17.4807C25.8499 17.7832 26 18.1682 26 18.6357C26 19.1032 25.8499 19.4882 25.5498 19.7907C25.2497 20.0932 24.8677 20.2444 24.4039 20.2444C23.94 20.2444 23.5581 20.0932 23.2579 19.7907L17.9375 14.4282V32.4957C17.9375 32.9632 17.7803 33.3553 17.466 33.6721C17.1517 33.9889 16.7632 34.1468 16.3004 34.1457C15.8377 34.1446 15.4492 33.9862 15.1348 33.6705C14.8205 33.3548 14.6634 32.9632 14.6634 32.4957V24.2457H11.3893V32.4957C11.3893 32.9632 11.2321 33.3553 10.9178 33.6721C10.6035 33.9889 10.2149 34.1468 9.75219 34.1457C9.28945 34.1446 8.90092 33.9862 8.58661 33.6705C8.27229 33.3548 8.11513 32.9632 8.11513 32.4957ZM13.0263 7.74567C12.1259 7.74567 11.3554 7.42282 10.7148 6.77712C10.0741 6.13142 9.75328 5.35427 9.75219 4.44567C9.7511 3.53707 10.072 2.76047 10.7148 2.11587C11.3576 1.47127 12.1281 1.14787 13.0263 1.14567C13.9245 1.14347 14.6956 1.46687 15.3395 2.11587C15.9834 2.76487 16.3037 3.54147 16.3004 4.44567C16.2972 5.34987 15.9768 6.12702 15.3395 6.77712C14.7021 7.42722 13.9311 7.75007 13.0263 7.74567Z" fill="black"/>
</g>
<defs>
<clipPath id="clip0_5619_161">
<rect width="26" height="23" fill="white" transform="translate(0 0.0484924)"/>
</clipPath>
</defs>
</svg>
