<svg width="56" height="11" viewBox="0 0 56 11" fill="none" xmlns="http://www.w3.org/2000/svg">
<path d="M10.8196 4.27726C10.8022 4.22347 10.7701 4.17564 10.7269 4.13919C10.6837 4.10275 10.6311 4.07914 10.5751 4.07105L7.37179 3.60558L5.93884 0.700085C5.91378 0.649467 5.87508 0.606859 5.8271 0.577069C5.77912 0.547279 5.72376 0.531494 5.66729 0.531494C5.61081 0.531494 5.55546 0.547279 5.50748 0.577069C5.4595 0.606859 5.42079 0.649467 5.39574 0.700085L3.96279 3.60339L0.759435 4.06886C0.703593 4.07707 0.651153 4.10071 0.608026 4.13712C0.564899 4.17353 0.532798 4.22127 0.515343 4.27495C0.497887 4.32863 0.495771 4.38611 0.509231 4.44093C0.522692 4.49575 0.551195 4.54571 0.591528 4.5852L2.90941 6.84473L2.36248 10.0357C2.35332 10.0911 2.35974 10.148 2.38101 10.2C2.40229 10.2519 2.43759 10.297 2.48297 10.3301C2.52835 10.3631 2.58203 10.3829 2.63801 10.3873C2.694 10.3916 2.75009 10.3803 2.80002 10.3546L5.66756 8.84991L8.53292 10.3563C8.58289 10.382 8.63905 10.3933 8.69509 10.389C8.75114 10.3846 8.80486 10.3647 8.85027 10.3316C8.89567 10.2985 8.93096 10.2533 8.95218 10.2013C8.97341 10.1492 8.97974 10.0923 8.97046 10.0368L8.42353 6.84582L10.742 4.58629C10.7824 4.54711 10.8111 4.49743 10.8248 4.44283C10.8385 4.38824 10.8367 4.33089 10.8196 4.27726Z" fill="white"/>
<path d="M22.0037 4.28116C21.9863 4.22738 21.9542 4.17955 21.9109 4.1431C21.8677 4.10665 21.8152 4.08305 21.7592 4.07496L18.5559 3.60949L17.1229 0.703992C17.0979 0.653373 17.0592 0.610765 17.0112 0.580975C16.9632 0.551186 16.9078 0.5354 16.8514 0.5354C16.7949 0.5354 16.7395 0.551186 16.6916 0.580975C16.6436 0.610765 16.6049 0.653373 16.5798 0.703992L15.1469 3.6073L11.9435 4.07277C11.8877 4.08098 11.8352 4.10462 11.7921 4.14103C11.749 4.17744 11.7169 4.22518 11.6994 4.27885C11.682 4.33253 11.6799 4.39002 11.6933 4.44484C11.7068 4.49965 11.7353 4.54962 11.7756 4.58911L14.0935 6.84863L13.5466 10.0396C13.5374 10.095 13.5438 10.1519 13.5651 10.2039C13.5864 10.2558 13.6217 10.3009 13.6671 10.334C13.7124 10.367 13.7661 10.3868 13.8221 10.3912C13.8781 10.3955 13.9342 10.3842 13.9841 10.3585L16.8516 8.85382L19.717 10.3602C19.767 10.3859 19.8231 10.3972 19.8792 10.3929C19.9352 10.3885 19.9889 10.3687 20.0343 10.3355C20.0798 10.3024 20.115 10.2572 20.1363 10.2052C20.1575 10.1531 20.1638 10.0962 20.1545 10.0407L19.6076 6.84973L21.926 4.5902C21.9665 4.55102 21.9951 4.50133 22.0089 4.44674C22.0226 4.39214 22.0208 4.3348 22.0037 4.28116Z" fill="white"/>
<path d="M33.1482 4.27726C33.1308 4.22347 33.0987 4.17564 33.0555 4.13919C33.0122 4.10275 32.9597 4.07914 32.9037 4.07105L29.7004 3.60558L28.2674 0.700085C28.2424 0.649467 28.2037 0.606859 28.1557 0.577069C28.1077 0.547279 28.0524 0.531494 27.9959 0.531494C27.9394 0.531494 27.8841 0.547279 27.8361 0.577069C27.7881 0.606859 27.7494 0.649467 27.7243 0.700085L26.2914 3.60339L23.088 4.06886C23.0322 4.07707 22.9798 4.10071 22.9366 4.13712C22.8935 4.17353 22.8614 4.22127 22.844 4.27495C22.8265 4.32863 22.8244 4.38611 22.8378 4.44093C22.8513 4.49575 22.8798 4.54571 22.9201 4.5852L25.238 6.84473L24.6911 10.0357C24.6819 10.0911 24.6883 10.148 24.7096 10.2C24.7309 10.2519 24.7662 10.297 24.8116 10.3301C24.857 10.3631 24.9106 10.3829 24.9666 10.3873C25.0226 10.3916 25.0787 10.3803 25.1286 10.3546L27.9962 8.84991L30.8615 10.3563C30.9115 10.382 30.9676 10.3933 31.0237 10.389C31.0797 10.3846 31.1335 10.3647 31.1789 10.3316C31.2243 10.2985 31.2596 10.2533 31.2808 10.2013C31.302 10.1492 31.3083 10.0923 31.299 10.0368L30.7521 6.84582L33.0705 4.58629C33.111 4.54711 33.1396 4.49743 33.1534 4.44283C33.1671 4.38824 33.1653 4.33089 33.1482 4.27726Z" fill="white"/>
<path d="M44.3245 4.27726C44.3071 4.22347 44.275 4.17564 44.2317 4.13919C44.1885 4.10275 44.136 4.07914 44.08 4.07105L40.8767 3.60558L39.4437 0.700085C39.4187 0.649467 39.38 0.606859 39.332 0.577069C39.284 0.547279 39.2286 0.531494 39.1722 0.531494C39.1157 0.531494 39.0603 0.547279 39.0124 0.577069C38.9644 0.606859 38.9257 0.649467 38.9006 0.700085L37.4677 3.60339L34.2643 4.06886C34.2085 4.07707 34.156 4.10071 34.1129 4.13712C34.0698 4.17353 34.0377 4.22127 34.0202 4.27495C34.0028 4.32863 34.0007 4.38611 34.0141 4.44093C34.0276 4.49575 34.0561 4.54571 34.0964 4.5852L36.4143 6.84473L35.8674 10.0357C35.8582 10.0911 35.8646 10.148 35.8859 10.2C35.9072 10.2519 35.9425 10.297 35.9879 10.3301C36.0332 10.3631 36.0869 10.3829 36.1429 10.3873C36.1989 10.3916 36.255 10.3803 36.3049 10.3546L39.1724 8.84991L42.0378 10.3563C42.0878 10.382 42.1439 10.3933 42.2 10.389C42.256 10.3846 42.3097 10.3647 42.3552 10.3316C42.4006 10.2985 42.4358 10.2533 42.4571 10.2013C42.4783 10.1492 42.4846 10.0923 42.4753 10.0368L41.9284 6.84582L44.2468 4.58629C44.2873 4.54711 44.3159 4.49743 44.3297 4.44283C44.3434 4.38824 44.3416 4.33089 44.3245 4.27726Z" fill="white"/>
<path d="M55.4847 4.27726C55.4672 4.22347 55.4351 4.17564 55.3919 4.13919C55.3487 4.10275 55.2961 4.07914 55.2402 4.07105L52.0368 3.60558L50.6039 0.700085C50.5788 0.649467 50.5401 0.606859 50.4921 0.577069C50.4442 0.547279 50.3888 0.531494 50.3323 0.531494C50.2759 0.531494 50.2205 0.547279 50.1725 0.577069C50.1245 0.606859 50.0858 0.649467 50.0608 0.700085L48.6278 3.60339L45.4245 4.06886C45.3686 4.07707 45.3162 4.10071 45.2731 4.13712C45.2299 4.17353 45.1978 4.22127 45.1804 4.27495C45.1629 4.32863 45.1608 4.38611 45.1743 4.44093C45.1877 4.49575 45.2162 4.54571 45.2566 4.5852L47.5744 6.84473L47.0275 10.0357C47.0184 10.0911 47.0248 10.148 47.0461 10.2C47.0673 10.2519 47.1026 10.297 47.148 10.3301C47.1934 10.3631 47.2471 10.3829 47.3031 10.3873C47.359 10.3916 47.4151 10.3803 47.4651 10.3546L50.3326 8.84991L53.198 10.3563C53.2479 10.382 53.3041 10.3933 53.3601 10.389C53.4162 10.3846 53.4699 10.3647 53.5153 10.3316C53.5607 10.2985 53.596 10.2533 53.6172 10.2013C53.6384 10.1492 53.6448 10.0923 53.6355 10.0368L53.0886 6.84582L55.407 4.58629C55.4474 4.54711 55.4761 4.49743 55.4898 4.44283C55.5035 4.38824 55.5018 4.33089 55.4847 4.27726Z" fill="white"/>
</svg>
