<svg id="Layer_1" data-name="Layer 1" xmlns="http://www.w3.org/2000/svg" viewBox="0 0 298.21 73.72"><defs><style>.cls-1{fill:#ee565c;}</style></defs><path class="cls-1" d="M20.58,32.66,43.17,6.57A3.18,3.18,0,0,0,44,4.11a3.56,3.56,0,0,0-1.16-2.32A3.29,3.29,0,0,0,40.5,1a3.54,3.54,0,0,0-2.45,1.27L1.59,44.45a3.53,3.53,0,0,0-.8,2.1V70.82A3.37,3.37,0,0,0,4.17,74.1a3.28,3.28,0,0,0,3.28-3.28v-23l8.78-10L43.3,72.89a3,3,0,0,0,2.6,1.21,3.14,3.14,0,0,0,2-.6,3.5,3.5,0,0,0,.67-4.78Z" transform="translate(-0.79 -0.67)"/><path class="cls-1" d="M4.17,34.39A3.21,3.21,0,0,0,7.45,31.1V4.34A3.38,3.38,0,0,0,4.17,1,3.42,3.42,0,0,0,.79,4.34V31.1A3.29,3.29,0,0,0,4.17,34.39Z" transform="translate(-0.79 -0.67)"/><path class="cls-1" d="M107.37,1a3.26,3.26,0,0,0-3.29,3.38V48.75a28.26,28.26,0,0,1-2.24,9.73c-2.86,6.07-8,9.15-15.29,9.15s-12.44-3-15.19-9a27.78,27.78,0,0,1-2.43-9.82V4.34A3.22,3.22,0,0,0,65.74,1a3.27,3.27,0,0,0-3.38,3.38V48.85c0,.47.08,11.64,7.36,19.22h0c4.13,4.14,10,6.32,16.82,6.32a24,24,0,0,0,14.06-4.13,21.68,21.68,0,0,0,7.21-8.88,32.28,32.28,0,0,0,2.93-12.63V4.34A3.3,3.3,0,0,0,107.37,1Z" transform="translate(-0.79 -0.67)"/><path class="cls-1" d="M162,5.56A32.14,32.14,0,0,0,146.87,1H128a3.3,3.3,0,0,0-3.28,3.38V70.72A3.29,3.29,0,0,0,128,74.1h20.92A27.86,27.86,0,0,0,163,69.39a28.86,28.86,0,0,0,9.6-11.16c2.78-5.56,4.18-12.52,4.18-20.7,0-8-1.5-15-4.48-20.72A30.1,30.1,0,0,0,162,5.56Zm8.2,32c0,12.36-3.6,21.17-10.68,26.18a20.65,20.65,0,0,1-10.59,3.73H131.36V7.63h15.51a24,24,0,0,1,11.67,3.84C166.25,16.35,170.16,25.12,170.16,37.53Z" transform="translate(-0.79 -0.67)"/><path class="cls-1" d="M229.23,3C226,1.45,221.89.67,216.79.67a33.22,33.22,0,0,0-12.31,2,21.89,21.89,0,0,0-9.26,6.7C192.84,12.19,191.14,16,190,21a73.74,73.74,0,0,0-1.65,16.54c0,13,2.43,22.22,7.43,28.2,4.64,5.83,11.51,8.66,21,8.66,9.21,0,16.27-3.14,21-9.34a30.49,30.49,0,0,0,5.59-11.65A70.37,70.37,0,0,0,245,37.53c0-12.37-2.14-21.34-6.55-27.42A21.9,21.9,0,0,0,229.23,3ZM216.79,67.63c-7.5,0-12.75-2-16-6.1-3.85-5-5.72-12.86-5.72-24,0-11.41,1.74-19.26,5.34-24,3.23-4.16,8.45-6.09,16.41-6.09,7.62,0,13,2.24,16.39,6.84,3.48,4.89,5.17,12.49,5.17,23.25,0,10.19-1.95,18.23-5.64,23.24C229.2,65.38,224,67.63,216.79,67.63Z" transform="translate(-0.79 -0.67)"/><path class="cls-1" d="M263.31,37A18.77,18.77,0,0,0,273,40.51a1.35,1.35,0,0,0,.59.11A3.35,3.35,0,0,0,274,34c-7.55-1-11.37-5.43-11.37-13.31,0-6.07,2.55-13.31,14.74-13.31,6,0,10.51,2.25,12.92,6.51a16.31,16.31,0,0,1,2,6.56,2.78,2.78,0,0,0,.06.42,3.3,3.3,0,0,0,3.38,3.2A3.4,3.4,0,0,0,299,20.55a23.12,23.12,0,0,0-2.76-9.89c-2.58-4.55-7.94-10-18.85-10a27,27,0,0,0-12,2.57,17.46,17.46,0,0,0-6.74,6.35,19.89,19.89,0,0,0-2.48,6.85,27,27,0,0,0-.3,4.21,21.76,21.76,0,0,0,2.17,9.94A16.48,16.48,0,0,0,263.31,37Z" transform="translate(-0.79 -0.67)"/><path class="cls-1" d="M292.27,38.81a18.15,18.15,0,0,0-8.92-4.08,3.26,3.26,0,0,0-4,2.56,3.21,3.21,0,0,0,.41,2.55A3.28,3.28,0,0,0,282,41.29c6.8,1.27,10.25,5.91,10.25,13.79,0,8.51-4.83,12.64-14.75,12.64-6.29,0-10.55-2-13-6.22a13.93,13.93,0,0,1-1.83-6.42,3.52,3.52,0,0,0-3.39-3.47,3.47,3.47,0,0,0-3.38,3.47,22,22,0,0,0,2.77,9.7c2.49,4.38,7.78,9.61,18.84,9.61A28,28,0,0,0,289.37,72a17.27,17.27,0,0,0,7-6.07A20.81,20.81,0,0,0,299,55.08a24.39,24.39,0,0,0-1.87-9.92A15.59,15.59,0,0,0,292.27,38.81Z" transform="translate(-0.79 -0.67)"/></svg>