<svg width="24" height="23" viewBox="0 0 24 23" fill="none" xmlns="http://www.w3.org/2000/svg">
<path d="M3.71857 20.3529L6.91171 19.2217L7.48686 19.5187C8.81786 20.2045 10.339 20.5698 12 20.5698C17.4937 20.5698 21.4286 16.4021 21.4286 11.3934C21.4286 6.36634 17.522 2.21691 12 2.21691C6.478 2.21691 2.57143 6.36634 2.57143 11.3934C2.58071 13.3171 3.17732 15.1858 4.27171 16.7191L4.80286 17.4699L3.71857 20.3513V20.3529ZM2.60757 22.5052C2.46537 22.5558 2.3125 22.5622 2.16702 22.5235C2.02154 22.4848 1.88954 22.4027 1.78659 22.2869C1.68364 22.1711 1.61406 22.0264 1.58606 21.87C1.55806 21.7136 1.57281 21.5519 1.62857 21.4041L3.01614 17.7218C1.71686 15.8995 1.0094 13.6789 1 11.3934C1 5.86414 5.21457 0.548462 12 0.548462C18.7854 0.548462 23 5.86414 23 11.3934C23 16.9226 18.7414 22.2383 12 22.2383C10.0436 22.2383 8.29614 21.7911 6.80171 21.0203L2.606 22.5052H2.60757Z" fill="black" stroke="black" stroke-width="0.8"/>
</svg>
