<svg width="30" height="29" viewBox="0 0 30 29" fill="none" xmlns="http://www.w3.org/2000/svg">
<path d="M3.70985 16.9418C2.38851 16.2506 1.62305 15.4287 1.62305 14.5488C1.62305 12.086 7.61296 10.0898 15 10.0898C22.3871 10.0898 28.377 12.086 28.377 14.5488C28.377 15.61 27.2622 16.5851 25.4043 17.352M15 13.0773L15.0149 13.061" stroke="black" stroke-width="2" stroke-linecap="round" stroke-linejoin="round"/>
<mask id="path-2-outside-1_5619_151" maskUnits="userSpaceOnUse" x="5.74109" y="-0.543579" width="19" height="30" fill="black">
<rect fill="white" x="5.74109" y="-0.543579" width="19" height="30"/>
<path d="M22.258 5.6309C22.2505 4.11039 21.8671 3.03429 21.0734 2.62852C18.8781 1.51228 14.3804 5.94303 11.0258 12.5245C7.67114 19.106 6.73178 25.35 8.92709 26.4678C9.71038 26.8676 10.788 26.5584 12.0038 25.6964"/>
</mask>
<path d="M20.258 5.64068C20.2634 6.74523 21.1632 7.63628 22.2678 7.63088C23.3723 7.62548 24.2634 6.72569 24.258 5.62113L20.258 5.64068ZM21.0734 2.62852L21.9838 0.847734L21.9798 0.845739L21.0734 2.62852ZM8.92709 26.4678L9.83636 24.6864L9.83452 24.6855L8.92709 26.4678ZM13.1606 27.3279C14.0617 26.689 14.2742 25.4406 13.6353 24.5395C12.9964 23.6385 11.748 23.426 10.847 24.0649L13.1606 27.3279ZM24.258 5.62113C24.2535 4.71725 24.1396 3.80633 23.8273 2.99395C23.5091 2.16641 22.9386 1.3359 21.9838 0.847739L20.163 4.4093C20.0018 4.3269 20.0199 4.23733 20.0937 4.42941C20.1734 4.63665 20.255 5.02404 20.258 5.64068L24.258 5.62113ZM21.9798 0.845739C20.6511 0.170121 19.257 0.479667 18.211 0.962383C17.1388 1.45718 16.0774 2.28346 15.0809 3.265C13.0722 5.24351 10.9916 8.18738 9.24391 11.6163L12.8077 13.4327C14.4146 10.2802 16.2602 7.71792 17.8878 6.11475C18.7094 5.30544 19.3937 4.82199 19.8871 4.59429C20.4067 4.35451 20.398 4.5288 20.1669 4.4113L21.9798 0.845739ZM9.24391 11.6163C7.49603 15.0454 6.33707 18.4592 5.91747 21.2474C5.70931 22.6306 5.66508 23.9752 5.89558 25.1334C6.12049 26.2636 6.69067 27.5734 8.01965 28.25L9.83452 24.6855C10.0658 24.8032 9.93021 24.9134 9.81865 24.3528C9.71268 23.8203 9.70133 22.9829 9.87293 21.8427C10.2128 19.584 11.2009 16.5851 12.8077 13.4327L9.24391 11.6163ZM8.01782 28.2491C9.89094 29.2052 11.8675 28.2447 13.1606 27.3279L10.847 24.0649C10.3566 24.4126 10.0054 24.5662 9.79978 24.6197C9.6105 24.6689 9.67546 24.6043 9.83636 24.6864L8.01782 28.2491Z" fill="black" mask="url(#path-2-outside-1_5619_151)"/>
<mask id="path-4-outside-2_5619_151" maskUnits="userSpaceOnUse" x="5.74109" y="-0.54248" width="19" height="30" fill="black">
<rect fill="white" x="5.74109" y="-0.54248" width="19" height="30"/>
<path d="M11.4326 3.03291C10.4516 2.45919 9.58508 2.29421 8.92664 2.63012C6.73133 3.74784 7.67217 9.99042 11.0268 16.5719C14.38 23.1563 18.8776 27.5856 21.0729 26.4679C23.023 25.4735 22.4968 20.4319 19.9998 14.7006"/>
</mask>
<path d="M10.4229 4.75933C11.3764 5.31697 12.6014 4.99608 13.159 4.04261C13.7166 3.08913 13.3958 1.86413 12.4423 1.30649L10.4229 4.75933ZM8.92664 2.63012L9.83407 4.41241L9.83551 4.41167L8.92664 2.63012ZM11.0268 16.5719L12.809 15.6643L12.8087 15.6636L11.0268 16.5719ZM21.0729 26.4679L21.9804 28.2502L21.9814 28.2496L21.0729 26.4679ZM21.8333 13.9018C21.3921 12.8891 20.2136 12.4259 19.201 12.8671C18.1883 13.3083 17.7251 14.4868 18.1663 15.4994L21.8333 13.9018ZM12.4423 1.30649C11.2797 0.626546 9.60885 0.036855 8.01776 0.84856L9.83551 4.41167C9.70501 4.47825 9.63406 4.44706 9.72662 4.46265C9.83755 4.48132 10.0679 4.55171 10.4229 4.75933L12.4423 1.30649ZM8.0192 0.847826C6.69018 1.52448 6.12008 2.83422 5.89531 3.96444C5.66498 5.12266 5.70945 6.4671 5.91782 7.85006C6.33782 10.6378 7.49715 14.0511 9.24494 17.4801L12.8087 15.6636C11.2018 12.5112 10.2134 9.5125 9.87318 7.25414C9.70141 6.11405 9.71263 5.27693 9.81848 4.74464C9.92991 4.18435 10.0654 4.29461 9.83407 4.41241L8.0192 0.847826ZM9.24461 17.4795C10.9916 20.9101 13.0719 23.8545 15.0806 25.8331C16.0771 26.8146 17.1387 27.6408 18.2111 28.1353C19.2576 28.6178 20.6519 28.9266 21.9804 28.2502L20.1655 24.6856C20.3963 24.5681 20.4052 24.7422 19.8861 24.5029C19.393 24.2755 18.709 23.7924 17.8875 22.9833C16.2603 21.3805 14.4152 18.8182 12.809 15.6643L9.24461 17.4795ZM21.9814 28.2496C23.1611 27.6481 23.7446 26.5394 24.0125 25.5276C24.2813 24.5124 24.3072 23.3504 24.195 22.1712C23.9691 19.7966 23.1363 16.8925 21.8333 13.9018L18.1663 15.4994C19.3603 18.24 20.0391 20.7224 20.213 22.55C20.3007 23.4719 20.2487 24.1149 20.1457 24.5038C20.0418 24.8961 19.9597 24.7905 20.1644 24.6861L21.9814 28.2496Z" fill="black" mask="url(#path-4-outside-2_5619_151)"/>
</svg>
